<svg xmlns="http://www.w3.org/2000/svg" width="100" height="28" fill="none"><g clip-path="url(#a)"><path fill="#01D167" fill-rule="evenodd" d="m14.276 28-.213-.003a14.123 14.123 0 0 1-5.358-1.063 13.83 13.83 0 0 1-4.52-2.997c-.047-.045-.095-.091-.095-.152 0-.05.03-.104.094-.166a1325.1 1325.1 0 0 0 4.148-4.377l.026-.026c2.649-2.799 5.65-5.97 5.786-6.103.039-.037.08-.06.112-.06.033 0 .051.023.051.06.072.087 9.664 10.393 9.96 10.585.045.044.062.084.05.113-.012.03-.058.047-.131.047a11.09 11.09 0 0 1-1.797 1.512 13.86 13.86 0 0 1-7.02 2.546 7.26 7.26 0 0 1-1.093.084Zm46.237-3.346H58.39c-.163 0-.163-.078-.163-.16V8.657c0-.159.08-.159.163-.159h2.286c.164 0 .164.077.164.159v1.83a4.882 4.882 0 0 1 2.204-1.91 5.748 5.748 0 0 1 4.652.143 5.494 5.494 0 0 1 2.94 3.518 6.91 6.91 0 0 1-.49 5.253c-.781 1.564-2.307 2.605-4.082 2.785a5.322 5.322 0 0 1-2.939-.318 5.146 5.146 0 0 1-2.122-1.512.408.408 0 0 1-.082-.12c-.02-.039-.04-.08-.081-.119v6.129c0 .318 0 .318-.327.318Zm3.967-14.435c-.872 0-1.7.321-2.334.905a3.584 3.584 0 0 0-1.306 2.944c.078.257.132.525.163.796.211 1.78 1.756 3.148 3.593 3.184h.045c1.496 0 2.824-.875 3.383-2.229a3.905 3.905 0 0 0 .163-2.546c-.215-1.275-1.123-2.342-2.367-2.785a3.446 3.446 0 0 0-1.34-.27ZM50.718 20.55a7.62 7.62 0 0 1-4.49-1.468.227.227 0 0 1-.125-.13c-.024-.074-.01-.166.043-.267.18-.263.308-.547.445-.848.11-.243.224-.494.37-.744.29.08.6.223.93.373.328.15.667.305 1.03.423a4.94 4.94 0 0 0 2.613.318c.284-.031.559-.111.816-.239a1.12 1.12 0 0 0 .326-1.83 1.948 1.948 0 0 0-.898-.477 11.684 11.684 0 0 0-1.314-.456 14.8 14.8 0 0 1-.808-.26l-1.224-.478c-1.106-.558-1.798-1.702-1.763-2.915.034-1.213.79-2.318 1.926-2.815a7.06 7.06 0 0 1 2.939-.478 9.176 9.176 0 0 1 3.51.956c.201.078.302.117.325.184.023.07-.039.171-.162.372l-.735 1.433-.044.05c-.029.036-.05.062-.093.062a.261.261 0 0 1-.107-.033 7.43 7.43 0 0 0-3.184-.955 2.183 2.183 0 0 0-1.225.16c-.4.123-.689.467-.735.875-.106.412.1.847.49 1.034.533.32 1.11.56 1.715.716.703.168 1.39.409 2.041.717.416.181.8.422 1.142.716a3.016 3.016 0 0 1 1.061 2.785c-.106 1.304-1.003 2.398-2.285 2.787a7.596 7.596 0 0 1-2.53.432Zm-13.315-.217a4.82 4.82 0 0 1-1.87-.375 3.656 3.656 0 0 1-2.127-2.08 3.526 3.526 0 0 1 .167-2.934 3.483 3.483 0 0 1 2.286-1.671 7.625 7.625 0 0 1 1.878-.239h3.51c.098 0 .172-.03.191-.075.011-.027.002-.056-.028-.085a2.857 2.857 0 0 0-.08-.874 2.069 2.069 0 0 0-1.797-1.512 5.648 5.648 0 0 0-3.428.397c-.38.163-.736.378-1.06.637-.037.035-.07.052-.102.052-.051 0-.098-.043-.144-.131-.328-.485-.63-.994-.898-1.513-.044-.042-.062-.083-.05-.112.012-.03.058-.047.131-.047a9.605 9.605 0 0 1 5.96-1.432 4.59 4.59 0 0 1 1.796.477c1.261.59 2.116 1.75 2.286 3.103.07.768.097 1.545.081 2.31v5.889c0 .158-.079.158-.163.158h-2.204c-.163 0-.163-.077-.163-.158v-1.274a6.759 6.759 0 0 1-3.429 1.432 4.865 4.865 0 0 1-.742.057Zm.58-5.388a5.653 5.653 0 0 0-1.552.238 1.349 1.349 0 0 0-.898.956c-.193.914.38 1.823 1.306 2.068a3.784 3.784 0 0 0 2.94-.318c.959-.36 1.563-1.31 1.468-2.308.056-.153.083-.314.082-.478 0-.159-.083-.159-.163-.159h-3.184Zm56.288 5.363c-.852 0-1.69-.145-2.49-.43-1.945-.66-3.32-2.307-3.592-4.297a5.862 5.862 0 0 1 .408-3.74c.756-1.789 2.445-3.07 4.407-3.343a8.126 8.126 0 0 1 3.102.08c1.726.349 3.072 1.599 3.512 3.262a8.143 8.143 0 0 1 .326 3.422c0 .16-.08.16-.163.16h-4.41a27.266 27.266 0 0 0-4.407-.239c-.09 0-.153.024-.18.07-.026.041-.02.098.017.17.414 1.64 1.913 2.784 3.646 2.784h.027l.153.003a4.588 4.588 0 0 0 3.194-1.276.157.157 0 0 1 .245 0c.203.198.39.4.57.595.182.197.368.4.574.6a.15.15 0 0 1 .06.118c0 .046-.023.09-.06.12a7.227 7.227 0 0 1-3.267 1.75c-.547.127-1.11.19-1.672.19Zm-.097-10.037c-.729 0-1.424.222-2.012.643a3.31 3.31 0 0 0-1.36 2.28c-.033.06-.04.1-.027.123.021.035.092.035.19.035h6.53c.163 0 .163-.08.163-.158a3.733 3.733 0 0 0-.571-1.672 3.08 3.08 0 0 0-2.286-1.194 3.495 3.495 0 0 0-.627-.057ZM76.13 20.198l-.025-.001h-2.204c-.164 0-.164 0-.164-.16V8.577c0-.16.08-.16.164-.16h2.204c.163 0 .163.082.163.16l.082 11.381a.212.212 0 0 1-.063.178.223.223 0 0 1-.157.062Zm6.697-.159c-.01 0-.018 0-.027-.002h-2.205c-.163 0-.163-.077-.163-.158V8.418c0-.159.08-.159.163-.159h2.286c.163 0 .163.077.163.159v1.91c.106-.145.216-.278.327-.398a4.488 4.488 0 0 1 3.183-1.67c.052 0 .112-.017.175-.033a.848.848 0 0 1 .212-.039.25.25 0 0 1 .185.071c.122.12.107.24.092.358a.943.943 0 0 0-.01.12v1.67c0 .16-.08.16-.164.16a4.016 4.016 0 0 0-2.368.557 3.261 3.261 0 0 0-1.631 2.865c-.055 1.33-.037 2.639-.019 3.905.01.628.019 1.272.019 1.904a.214.214 0 0 1-.064.178.223.223 0 0 1-.154.063Zm-55.05-2.23a.178.178 0 0 1-.164-.159c-.062-.08-12.49-13.392-13.225-14.007-.104-.101-.177-.144-.246-.144-.096 0-.182.084-.325.223C13.708 3.83.838 17.492.674 17.73c-.034.033-.068.052-.095.052-.021 0-.037-.01-.049-.031a.211.211 0 0 1-.019-.1 13.107 13.107 0 0 1-.49-4.378 12.461 12.461 0 0 1 1.796-6.05C3.719 3.684 7.11 1.189 11.124.38A14.073 14.073 0 0 1 14.37 0c3.806 0 7.473 1.56 10.06 4.28a13.14 13.14 0 0 1 3.837 7.48c.138.757.193 1.534.163 2.309a18.164 18.164 0 0 1-.571 3.582c0 .08 0 .158-.082.158Zm47.218-11.38c-.402 0-.78-.152-1.063-.43a1.45 1.45 0 0 1-.44-1.083c0-.85.68-1.549 1.552-1.591h.03c.416 0 .819.168 1.104.462.295.303.446.714.416 1.13 0 .397-.165.787-.453 1.068a1.586 1.586 0 0 1-1.146.444Z" clip-rule="evenodd"/></g><defs><clipPath id="a"><path fill="#fff" d="M0 0h100v28H0z"/></clipPath></defs></svg>